<svg width="24" height="24" viewBox="0 0 24 24" fill="none" xmlns="http://www.w3.org/2000/svg">
<path d="M14.899 12.0001L23.3994 3.49969C24.2002 2.69944 24.2002 1.40105 23.3994 0.600793C22.5986 -0.200264 21.3013 -0.200264 20.5005 0.600793L12.0001 9.10123L3.49968 0.600793C2.6989 -0.200264 1.40158 -0.200264 0.600792 0.600793C-0.200264 1.40105 -0.200264 2.69944 0.600792 3.49969L9.10121 12.0001L0.601058 20.5006C-0.199997 21.3008 -0.199997 22.5992 0.601058 23.3995C1.00132 23.7997 1.52585 24 2.05037 24C2.5749 24 3.09942 23.7997 3.49995 23.3995L12.0001 14.8993L20.5005 23.3995C20.9008 23.7997 21.4256 24 21.9498 24C22.4746 24 22.9989 23.7997 23.3994 23.3995C24.2002 22.5992 24.2002 21.3008 23.3994 20.5006L14.899 12.0001Z" fill="#868686"/>
</svg>
