<svg width="12" height="9" viewBox="0 0 12 9" fill="none" xmlns="http://www.w3.org/2000/svg">
<path d="M5.99991 2.62546H4.49988V0.375424C4.49988 0.220171 4.40463 0.0814189 4.25988 0.025918C4.11663 -0.0310829 3.95162 0.00791779 3.84737 0.12342L0.097314 4.24848C-0.032438 4.39174 -0.032438 4.60999 0.097314 4.75324L3.84737 8.87831C3.92012 8.95706 4.02138 9.00056 4.12488 9.00056C4.17063 9.00056 4.21638 8.99231 4.25988 8.97581C4.40463 8.91956 4.49988 8.78081 4.49988 8.62555V6.37552H5.2874C7.58093 6.37552 9.73721 7.26878 11.3595 8.89106C11.4675 8.99906 11.6295 9.03056 11.7682 8.97206C11.9085 8.91431 12 8.77706 12 8.62555C12 5.31725 9.30821 2.62546 5.99991 2.62546Z" fill="#868686"/>
</svg>
